<svg width="133.76mm" height="95.429mm" version="1.1" viewBox="0 0 133.76 95.429" xmlns="http://www.w3.org/2000/svg" xmlns:osb="http://www.openswatchbook.org/uri/2009/osb" xmlns:xlink="http://www.w3.org/1999/xlink">
 <g transform="translate(-7.6718 -28.929)">
  <g transform="matrix(1.243 0 0 1.6795 -16.117 -19.95)" stroke="#00000c" stroke-linejoin="round">
   <path d="m29.592 52.182h37.577v20.19h-37.577z" fill="#de8731" fill-opacity=".0092593" stroke-width="5.2255" style="paint-order:markers stroke fill"/>
   <path d="m78.282 52.182h37.577v20.19h-37.577z" fill="#de8731" fill-opacity=".0092593" stroke-width="5.2255" style="paint-order:markers stroke fill"/>
   <g fill-opacity=".98148">
    <path transform="matrix(.95832 -.28571 -.28571 -.95832 0 0)" d="m102.92-92.285a5.8027 1.8789 0 0 1-5.8027 1.8789 5.8027 1.8789 0 0 1-5.8027-1.8789 5.8027 1.8789 0 0 1 5.8027-1.8789 5.8027 1.8789 0 0 1 5.8027 1.8789z" stroke-width="1.3899" style="paint-order:markers stroke fill"/>
    <path transform="rotate(196.6)" d="m-35.807-50.135a5.8027 1.8789 0 0 1-5.8027 1.8789 5.8027 1.8789 0 0 1-5.8027-1.8789 5.8027 1.8789 0 0 1 5.8027-1.8789 5.8027 1.8789 0 0 1 5.8027 1.8789z" stroke-width="1.3899" style="paint-order:markers stroke fill"/>
    <path d="m64.675 61.707h13.607v4.5357h-13.607z" stroke-width=".9" style="paint-order:markers stroke fill"/>
    <path transform="matrix(.96835 -.24961 -.24961 -.96835 0 0)" d="m50.897-59.912a29.423 10.278 0 0 1-10.898 7.9853 29.423 10.278 0 0 1-24.621 2.0702" stroke-width=".60737" style="paint-order:markers stroke fill"/>
    <path transform="matrix(-.9216 -.38814 .15584 -.98778 0 0)" d="m-101.93 5.2415a18.922 10.076 0 0 1-7.0084 7.8281 18.922 10.076 0 0 1-15.834 2.0295" stroke-width=".48226" style="paint-order:markers stroke fill"/>
    <path transform="matrix(.74927 -.66226 -.16778 -.98582 0 0)" d="m110.69-107.86a23.274 9.3591 0 0 1-8.6202 7.2711 23.274 9.3591 0 0 1-19.475 1.885" stroke-width=".51547" style="paint-order:markers stroke fill"/>
   </g>
  </g>
  <g stroke-width=".26458" style="font-variant-caps:normal;font-variant-ligatures:normal;font-variant-numeric:normal" aria-label="The Data Curious">
   <path d="m12.935 122.72q0.93133 0 0.93133 0.70555 0 0.70556-0.93133 0.70556h-3.2597q-0.93133 0-0.93133-0.70556 0-0.40922 0.23989-0.55033 0.23989-0.15522 0.69144-0.15522h0.91722v-5.4046h-1.5099v1.3123q0 0.93134-0.70556 0.93134-0.70556 0-0.70556-0.93134v-2.7234h7.2813v2.7234q0 0.45156-0.15522 0.69145-0.14111 0.23989-0.55033 0.23989-0.70556 0-0.70556-0.93134v-1.3123h-1.5381v5.4046z"/>
   <path d="m15.724 116.05q0-0.70555 0.93133-0.70555h1.6369v3.302q0.84667-0.86078 1.9332-0.86078 1.1289 0 1.8062 0.64911 0.69144 0.635 0.69144 1.6933v2.5964h0.08467q0.93133 0 0.93133 0.70555 0 0.70556-0.93133 0.70556h-1.5804q-0.94544 0-0.94544-0.70556 0-0.70555 0.94544-0.70555h0.08467v-2.413q0-0.53623-0.254-0.81845-0.23989-0.29633-0.98778-0.29633-0.49389 0-0.83256 0.18344-0.33867 0.18345-0.94544 0.762v2.5823h0.08467q0.94544 0 0.94544 0.70555 0 0.70556-0.94544 0.70556h-1.5804q-0.93133 0-0.93133-0.70556 0-0.70555 0.93133-0.70555h0.08467v-5.969h-0.22578q-0.45156 0-0.69144-0.14111-0.23989-0.15523-0.23989-0.56445z"/>
   <path d="m31.763 123.19q0 0.45156-0.81844 0.74789-0.81844 0.28222-1.5381 0.35278-0.70556 0.0706-1.2136 0.0706-1.6369 0-2.6811-0.91723-1.0442-0.91722-1.0442-2.3566 0-1.397 1.0442-2.3424 1.0583-0.95955 2.5964-0.95955 1.5804 0 2.6106 0.95955 1.0442 0.95956 1.0442 2.413v0.55034h-5.7573q0.47978 1.2418 2.3142 1.2418 0.74789 0 1.6651-0.22577 0.91722-0.23989 1.1007-0.23989 0.28222 0 0.47978 0.21166 0.19756 0.19756 0.19756 0.49389zm-5.715-2.7234h4.1487q-0.16933-0.57856-0.73378-0.91722-0.56444-0.35278-1.3406-0.35278t-1.3547 0.35278q-0.56444 0.35277-0.71967 0.91722z"/>
   <path d="m42.053 124.13q-0.94544 0-0.94544-0.70556 0-0.33866 0.22578-0.52211 0.22578-0.18344 0.635-0.18344v-5.4046q-0.86078 0-0.86078-0.70555 0-0.42334 0.23989-0.56445 0.254-0.14111 0.70556-0.14111h2.9916q1.5381 0 2.5823 1.1289 1.0583 1.1289 1.0583 2.794v0.66322q0 1.651-1.0301 2.6529-1.016 0.98778-2.7234 0.98778zm5.2211-4.3321q0-1.0583-0.64911-1.7639-0.635-0.71967-1.6933-0.71967h-1.5522v5.4046h1.5663q0.70556 0 1.1853-0.21167 0.49389-0.21167 0.71967-0.57856 0.23989-0.36688 0.32456-0.71966 0.09878-0.35278 0.09878-0.762z"/>
   <path d="m49.978 122.45q0-0.95956 0.94544-1.6651 0.94544-0.71966 2.4694-0.71966 0.635 0 1.4676 0.14111v-0.32456q0-0.69144-1.3123-0.69144-0.57856 0-1.3123 0.16933-0.73378 0.15522-0.889 0.15522-0.29633 0-0.49389-0.19755-0.19756-0.21167-0.19756-0.52211 0-0.45156 0.42333-0.59267 1.1994-0.42333 2.4271-0.42333 1.2982 0 2.032 0.55033 0.74789 0.55033 0.74789 1.5381v2.8504h0.22578q0.93133 0 0.93133 0.70555 0 0.70556-0.93133 0.70556h-1.651v-0.32456q-1.0583 0.55034-2.3424 0.55034-1.0442 0-1.7921-0.55034-0.74789-0.56444-0.74789-1.3547zm4.8966-0.22578v-0.70556q-0.889-0.15522-1.5663-0.15522-0.71967 0-1.2841 0.31044-0.55033 0.31045-0.55033 0.71967 0 0.23989 0.31044 0.39511 0.31044 0.15522 0.762 0.15522 1.1571 0 2.3283-0.71966z"/>
   <path d="m60.866 122.14q0 0.43745 0.23989 0.62089t0.97367 0.18344q0.55033 0 1.0019-0.0988 0.46567-0.0988 0.69144-0.21167 0.23989-0.127 0.46567-0.22578 0.23989-0.0988 0.39511-0.0988 0.28222 0 0.47978 0.21167 0.19756 0.21167 0.19756 0.508 0 0.39511-0.60678 0.71967-0.59267 0.31044-1.3264 0.45155-0.71967 0.15523-1.3123 0.15523-1.1994 0-1.905-0.52212-0.70556-0.52211-0.70556-1.4252v-3.0339h-0.49389q-0.93133 0-0.93133-0.70555 0-0.40922 0.23989-0.55034 0.23989-0.15522 0.69144-0.15522h0.49389v-1.2418q0-0.93133 0.70556-0.93133 0.40922 0 0.55033 0.23989 0.15522 0.23989 0.15522 0.69144v1.2418h2.5541q0.45156 0 0.69144 0.15522 0.23989 0.14112 0.23989 0.55034 0 0.70555-0.93133 0.70555h-2.5541z"/>
   <path d="m66.9 122.45q0-0.95956 0.94544-1.6651 0.94544-0.71966 2.4694-0.71966 0.635 0 1.4676 0.14111v-0.32456q0-0.69144-1.3123-0.69144-0.57856 0-1.3123 0.16933-0.73378 0.15522-0.889 0.15522-0.29633 0-0.49389-0.19755-0.19756-0.21167-0.19756-0.52211 0-0.45156 0.42333-0.59267 1.1994-0.42333 2.4271-0.42333 1.2982 0 2.032 0.55033 0.74789 0.55033 0.74789 1.5381v2.8504h0.22578q0.93133 0 0.93133 0.70555 0 0.70556-0.93133 0.70556h-1.651v-0.32456q-1.0583 0.55034-2.3424 0.55034-1.0442 0-1.7921-0.55034-0.74789-0.56444-0.74789-1.3547zm4.8966-0.22578v-0.70556q-0.889-0.15522-1.5663-0.15522-0.71967 0-1.2841 0.31044-0.55033 0.31045-0.55033 0.71967 0 0.23989 0.31044 0.39511 0.31044 0.15522 0.762 0.15522 1.1571 0 2.3283-0.71966z"/>
   <path d="m87.886 122.92q0.66322 0 1.1289-0.15522 0.47978-0.16933 0.67733-0.35278 0.19756-0.19755 0.39511-0.35278 0.21167-0.16933 0.39511-0.16933 0.28222 0 0.49389 0.21167 0.21167 0.21166 0.21167 0.49389 0 0.60677-0.97367 1.1712-0.95956 0.56444-2.3707 0.56444-1.7921 0-2.9774-1.0442-1.1712-1.0583-1.1712-2.667v-0.93133q0-1.6933 1.1007-2.8363t2.7376-1.143q0.98778 0 2.0038 0.47978l0.14111 0.0564q0.23989-0.33867 0.59267-0.33867 0.40922 0 0.55033 0.23989 0.15522 0.23989 0.15522 0.69144v1.1853q0 0.93133-0.70556 0.93133-0.254 0-0.42333-0.14111-0.15522-0.14111-0.19756-0.254-0.02822-0.127-0.07056-0.35278-0.08467-0.42333-0.52211-0.67733-0.42333-0.26811-0.79022-0.33867-0.36689-0.0705-0.67733-0.0705-1.0724 0-1.778 0.73377-0.70556 0.71967-0.70556 1.8344v0.90311q0 1.0583 0.74789 1.6933 0.762 0.635 2.032 0.635z"/>
   <path d="m96.841 119.38q-0.42333 0-0.60678-0.21166-0.18344-0.22578-0.18344-0.49389 0-0.70556 0.93133-0.70556h1.905v4.7554q0.86078 0 0.86078 0.70555 0 0.70556-0.93133 0.70556h-1.3406v-0.67734q-0.52211 0.49389-0.94544 0.67734-0.40922 0.18344-0.98778 0.18344-1.1148 0-1.8203-0.62089-0.69144-0.635-0.69144-1.7639v-2.5541h-0.381q-0.35278 0-0.56444-0.19755-0.21167-0.19756-0.21167-0.508 0-0.40922 0.23989-0.55034 0.23989-0.15522 0.69144-0.15522h1.6369v3.9229q0 1.016 1.2418 1.016 0.53622 0 0.889-0.18344 0.35278-0.19756 0.90311-0.77611v-2.5682h-0.49389z"/>
   <path d="m106.43 117.8q0.59266 0 1.1853 0.36689t0.59267 0.83255q0 0.29634-0.21167 0.508-0.21167 0.21167-0.49389 0.21167-0.23989 0-0.55033-0.254-0.31045-0.254-0.55033-0.254-0.33867 0-0.83256 0.31044-0.47978 0.29634-1.4958 1.1289v2.0743h1.9614q0.94544 0 0.94544 0.70555 0 0.70556-0.94544 0.70556h-4.191q-0.93134 0-0.93134-0.70556 0-0.40922 0.23989-0.55033 0.23989-0.15522 0.69145-0.15522h0.81844v-3.3443h-0.49389q-0.93133 0-0.93133-0.70555 0-0.70556 0.93133-0.70556h1.905v0.91722q0.84667-0.635 1.3406-0.86077 0.49389-0.22578 1.016-0.22578z"/>
   <path d="m115.27 122.72q0.93133 0 0.93133 0.70555 0 0.70556-0.93133 0.70556h-4.8542q-0.93134 0-0.93134-0.70556 0-0.40922 0.23989-0.55033 0.23989-0.15522 0.69145-0.15522h1.7216v-3.3443h-1.1007q-0.94545 0-0.94545-0.70555 0-0.42334 0.23989-0.56445 0.254-0.14111 0.70556-0.14111h2.5118v4.7554zm-1.9191-7.3801v1.4817h-1.6651v-1.4817z"/>
   <path d="m121.35 117.78q1.4958 0 2.54 0.95955 1.0583 0.95956 1.0583 2.3283 0 1.3829-1.0583 2.3424-1.0583 0.94545-2.5823 0.94545t-2.5823-0.94545q-1.0583-0.95955-1.0583-2.3424 0-1.397 1.0583-2.3424 1.0583-0.94544 2.6247-0.94544zm-0.0141 1.4111q-0.95956 0-1.6087 0.53622t-0.64911 1.3406q0 0.79022 0.635 1.3406 0.64911 0.53622 1.5946 0.53622 0.94544 0 1.5804-0.53622 0.64911-0.55033 0.64911-1.3406 0-0.79023-0.64911-1.3264-0.635-0.55033-1.5522-0.55033z"/>
   <path d="m130.69 119.38q-0.42333 0-0.60678-0.21166-0.18344-0.22578-0.18344-0.49389 0-0.70556 0.93133-0.70556h1.905v4.7554q0.86078 0 0.86078 0.70555 0 0.70556-0.93133 0.70556h-1.3406v-0.67734q-0.52211 0.49389-0.94544 0.67734-0.40923 0.18344-0.98778 0.18344-1.1148 0-1.8203-0.62089-0.69144-0.635-0.69144-1.7639v-2.5541h-0.381q-0.35278 0-0.56444-0.19755-0.21167-0.19756-0.21167-0.508 0-0.40922 0.23989-0.55034 0.23989-0.15522 0.69144-0.15522h1.6369v3.9229q0 1.016 1.2418 1.016 0.53622 0 0.889-0.18344 0.35278-0.19756 0.90311-0.77611v-2.5682h-0.49389z"/>
   <path d="m141.14 119.24q0 0.45156-0.15523 0.69145-0.14111 0.23989-0.55033 0.23989-0.254 0-0.42333-0.15523-0.16934-0.15522-0.28223-0.32455-0.0988-0.18345-0.47977-0.33867-0.36689-0.15522-1.0019-0.15522-0.53622 0-0.97367 0.15522-0.42333 0.14111-0.42333 0.33867 0 0.28222 0.62089 0.40922 0.62089 0.11289 1.5522 0.254t1.4252 0.42333q0.46567 0.254 0.71967 0.67734 0.26811 0.42333 0.26811 0.91722 0 0.86078-0.889 1.4252-0.889 0.56445-2.2578 0.56445-1.2277 0-2.0884-0.40923-0.21167 0.16934-0.45156 0.16934-0.71967 0-0.71967-0.93134v-0.46566q0-0.94545 0.71967-0.94545 0.53622 0 0.71967 0.62089 0.60678 0.55033 1.7639 0.55033 0.67733 0 1.1571-0.18344 0.49389-0.18344 0.49389-0.42333 0-0.55034-1.778-0.73378-1.4817-0.15522-2.1449-0.60678-0.66322-0.45155-0.66322-1.2841 0-0.84667 0.81844-1.3829 0.81844-0.55033 2.0884-0.55033 1.0301 0 1.8203 0.36689 0.15522-0.36689 0.45155-0.36689 0.66323 0 0.66323 0.93133z"/>
  </g>
 </g>
</svg>
