<?xml version="1.0" standalone="no"?>
<!DOCTYPE svg PUBLIC "-//W3C//DTD SVG 20010904//EN"
 "http://www.w3.org/TR/2001/REC-SVG-20010904/DTD/svg10.dtd">
<svg version="1.0" xmlns="http://www.w3.org/2000/svg"
 width="1000.000000pt" height="1000.000000pt" viewBox="0 0 1000.000000 1000.000000"
 preserveAspectRatio="xMidYMid meet">
<metadata>
Created by potrace 1.11, written by Peter Selinger 2001-2013
</metadata>
<g transform="translate(0.000000,1000.000000) scale(0.100000,-0.100000)"
fill="#000000" stroke="none">
<path d="M7665 7891 c-93 -20 -183 -50 -206 -68 -8 -7 -21 -13 -27 -13 -6 0
-17 -6 -25 -14 -7 -8 -34 -17 -60 -20 -26 -4 -52 -9 -59 -11 -7 -2 -26 -7 -43
-10 -37 -7 -43 -9 -80 -24 -97 -38 -115 -47 -115 -53 0 -5 -7 -8 -15 -8 -18 0
-271 -155 -295 -180 -3 -3 -27 -24 -55 -45 -27 -22 -52 -43 -55 -46 -3 -3 -16
-12 -29 -21 -64 -44 -354 -323 -507 -488 -121 -132 -353 -414 -477 -582 -41
-55 -56 -84 -53 -100 3 -13 5 -27 5 -33 1 -5 9 2 18 15 20 29 53 60 64 60 8 0
110 60 119 71 3 3 20 11 38 19 19 7 39 18 46 24 12 11 17 14 96 57 25 13 48
29 52 34 4 6 8 6 8 1 0 -5 8 -3 18 5 9 8 28 20 42 28 48 28 145 84 180 104 19
11 63 36 98 56 79 45 149 85 182 104 14 8 45 25 70 38 25 13 50 29 57 35 6 6
25 17 42 24 17 7 31 16 31 21 0 5 8 9 17 9 9 0 24 6 32 14 9 7 36 25 61 38 25
14 61 35 80 46 19 11 55 31 80 43 25 12 59 33 76 46 17 13 33 23 37 23 10 0
152 83 158 92 3 5 9 9 13 8 3 0 34 15 69 34 69 38 27 34 582 60 55 3 145 7
200 10 55 3 145 8 200 11 55 3 138 7 185 10 47 2 135 7 195 10 206 11 245 14
254 20 5 3 12 1 16 -4 3 -6 16 -7 28 -3 28 10 157 8 179 -2 12 -5 18 -1 23 15
6 18 1 28 -21 46 -36 29 -221 153 -228 153 -3 0 -24 13 -48 29 -49 33 -225
123 -232 119 -2 -2 -13 6 -25 16 -12 11 -21 16 -21 12 0 -4 -12 -1 -27 8 -49
25 -95 44 -207 81 -116 38 -182 55 -271 70 -16 3 -43 8 -60 11 -71 15 -330 11
-410 -5z"/>
<path d="M2708 6525 c-2 -2 -37 -7 -78 -10 -41 -3 -93 -8 -115 -11 -22 -3 -56
-7 -75 -9 -19 -2 -52 -6 -72 -9 -21 -3 -55 -8 -75 -11 -21 -3 -69 -12 -108
-20 -38 -8 -84 -16 -101 -19 -16 -3 -91 -19 -165 -36 -73 -17 -143 -33 -154
-36 -11 -2 -31 -8 -45 -13 -20 -7 -87 -27 -120 -36 -88 -24 -369 -116 -425
-140 -16 -7 -73 -29 -125 -50 -52 -20 -99 -41 -104 -46 -6 -5 -16 -9 -24 -9
-7 0 -47 -16 -88 -34 -68 -32 -74 -37 -70 -60 8 -42 14 -46 51 -30 34 14 163
14 600 -1 77 -3 210 -7 295 -10 383 -11 493 -16 501 -21 5 -3 9 0 9 6 0 6 5 8
11 4 7 -4 57 -8 113 -10 167 -4 461 -14 631 -20 88 -3 222 -6 297 -7 76 -1
138 -4 138 -7 0 -3 87 -6 193 -8 105 -1 213 -4 239 -6 32 -2 46 0 41 7 -4 6
-1 7 8 1 8 -5 41 -10 74 -11 33 -1 105 -4 160 -6 121 -5 136 0 125 45 -30 131
-142 284 -275 380 -120 86 -351 176 -520 204 -11 1 -29 5 -40 7 -24 5 -111 18
-175 24 -55 6 -527 13 -532 8z"/>
<path d="M926 5307 c-20 -5 -36 -13 -36 -18 0 -5 -6 -9 -13 -9 -15 0 -65 -51
-89 -91 -49 -78 -51 -102 -53 -506 -1 -211 -4 -386 -8 -389 -3 -4 -21 0 -39 9
-18 9 -55 23 -83 32 -27 9 -57 19 -65 22 -8 3 -19 7 -25 8 -203 46 -354 39
-431 -20 -62 -47 -86 -143 -61 -241 12 -46 83 -143 146 -199 19 -16 39 -34 46
-40 23 -21 75 -55 84 -55 5 0 11 -4 13 -8 11 -26 267 -141 361 -163 32 -8 57
-18 58 -24 0 -5 2 -293 4 -640 2 -547 5 -648 15 -675 1 -3 2 -9 1 -14 -1 -5 5
-16 12 -25 8 -9 18 -26 21 -38 10 -31 83 -102 124 -119 30 -12 292 -14 1839
-14 l1804 0 43 25 c70 41 118 107 141 197 11 39 14 144 15 437 0 211 2 387 5
389 4 4 412 6 525 3 l25 -1 -1 -388 c0 -213 4 -405 9 -427 22 -95 91 -189 159
-219 28 -12 303 -14 1837 -15 l1804 -1 44 21 c87 42 154 158 157 271 0 32 5
58 9 58 5 0 6 4 3 8 -4 7 -7 76 -5 122 0 8 0 51 -1 95 -1 44 -1 85 0 90 2 6 2
14 1 18 -2 12 -2 260 0 272 1 6 1 14 0 19 -5 24 -4 137 2 142 3 3 2 18 -2 32
-5 15 -6 36 -5 47 5 24 7 96 4 110 -1 6 -2 39 -1 76 l1 65 73 23 c246 80 500
258 573 403 50 99 38 215 -28 274 -91 84 -285 85 -528 4 -47 -15 -86 -27 -87
-26 -1 1 -2 38 -2 82 0 43 -1 97 -2 119 -1 22 -1 46 0 53 2 24 2 38 1 117 -1
44 -1 85 0 90 2 6 2 14 1 18 -2 13 -3 210 0 222 1 6 1 13 1 16 -1 3 -2 28 -3
55 -5 148 -82 283 -179 316 -27 9 -461 12 -1835 12 l-1800 0 -51 -29 c-55 -31
-102 -90 -130 -165 -16 -40 -18 -107 -20 -640 -1 -327 -3 -607 -3 -622 l-1
-27 -275 0 -275 -1 0 603 c0 361 -4 619 -10 645 -15 65 -47 126 -88 167 -73
74 92 68 -1899 69 -985 1 -1807 -3 -1827 -7z m742 -657 c3 -1 251 -1 257 0 22
4 137 1 142 -4 3 -3 10 -3 15 0 9 6 126 8 146 3 4 -1 10 -1 13 -1 14 2 374 3
384 1 6 -1 13 -1 16 -1 34 5 381 3 386 -2 3 -3 10 -3 15 0 9 6 126 8 146 3 4
-1 10 -1 13 -1 10 2 372 3 382 2 9 -1 255 -1 262 0 22 4 137 1 142 -4 3 -3 10
-3 15 0 8 5 123 8 146 4 4 -1 31 -1 59 0 l53 1 0 -406 c-1 -353 -3 -410 -16
-431 -24 -35 -24 -642 0 -659 13 -10 15 -41 13 -206 l-2 -194 -1512 -1 c-832
0 -1514 2 -1514 5 -1 4 -2 430 -3 948 l-1 943 155 2 c130 3 278 1 288 -2z
m4559 -4 c3 -3 10 -3 15 0 9 6 126 8 146 3 4 -1 10 -1 13 -1 10 2 372 3 382 2
9 -1 255 -1 262 0 22 4 137 1 142 -4 3 -3 10 -3 15 0 9 6 126 8 146 3 4 -1 10
-1 13 -1 14 2 374 3 384 1 6 -1 13 -1 16 -1 34 5 381 3 386 -2 3 -3 10 -3 15
0 9 6 126 8 146 3 4 -1 10 -1 15 0 4 0 91 1 195 1 103 -1 215 -1 249 0 l62 1
0 -949 0 -948 -1517 0 -1517 1 0 945 -1 945 151 5 c174 6 274 4 282 -4z"/>
</g>
</svg>
